<svg width="221" height="41" viewBox="0 0 221 41" fill="none" xmlns="http://www.w3.org/2000/svg">
<path d="M149.848 35.256L150.784 35.04C151.184 34.944 151.472 34.832 151.648 34.704C151.84 34.576 151.976 34.4 152.056 34.176C152.136 33.936 152.176 33.584 152.176 33.12V22.608L149.512 24.336C149.192 24.288 148.904 24.12 148.648 23.832C148.392 23.544 148.176 23.216 148 22.848L154.024 20.04C154.392 20.12 154.68 20.392 154.888 20.856L154.336 21.216V31.632C154.336 32.528 154.408 33.24 154.552 33.768C154.696 34.296 154.952 34.792 155.32 35.256L155.56 35.64L155.32 36H150.112L149.848 35.256Z" fill="#1B1B1B"/>
<path d="M164.535 36.36C162.951 36.36 161.663 36.04 160.671 35.4C159.695 34.76 159.207 33.768 159.207 32.424C159.207 31.544 159.479 30.76 160.023 30.072C160.567 29.384 161.255 28.8 162.087 28.32C161.239 27.856 160.607 27.32 160.191 26.712C159.775 26.104 159.567 25.344 159.567 24.432C159.567 23.664 159.751 22.944 160.119 22.272C160.487 21.6 161.047 21.056 161.799 20.64C162.551 20.224 163.471 20.016 164.559 20.016C166.143 20.016 167.415 20.344 168.375 21C169.351 21.656 169.839 22.664 169.839 24.024C169.839 24.824 169.583 25.552 169.071 26.208C168.575 26.864 167.943 27.416 167.175 27.864C168.215 28.408 168.983 29.032 169.479 29.736C169.991 30.424 170.247 31.216 170.247 32.112C170.247 33.392 169.735 34.424 168.711 35.208C167.703 35.976 166.311 36.36 164.535 36.36ZM166.071 27.36C167.031 26.224 167.511 25.104 167.511 24C167.511 23.184 167.247 22.52 166.719 22.008C166.207 21.496 165.487 21.24 164.559 21.24C163.775 21.24 163.127 21.496 162.615 22.008C162.103 22.52 161.847 23.112 161.847 23.784C161.847 24.392 162.055 24.92 162.471 25.368C162.903 25.8 163.639 26.248 164.679 26.712L166.071 27.36ZM164.559 35.16C165.535 35.16 166.327 34.944 166.935 34.512C167.543 34.064 167.847 33.456 167.847 32.688C167.847 31.968 167.663 31.408 167.295 31.008C166.943 30.592 166.335 30.192 165.471 29.808L163.143 28.8C162.599 29.376 162.191 29.976 161.919 30.6C161.647 31.208 161.511 31.792 161.511 32.352C161.511 33.184 161.783 33.864 162.327 34.392C162.871 34.904 163.615 35.16 164.559 35.16Z" fill="#1B1B1B"/>
<path d="M173.684 35.256L174.212 35.136C174.772 34.96 175.14 34.752 175.316 34.512C175.492 34.256 175.58 33.792 175.58 33.12V23.28C175.58 22.608 175.484 22.144 175.292 21.888C175.116 21.616 174.756 21.408 174.212 21.264L173.684 21.144L173.948 20.4H178.724L179.012 20.736L178.724 21.144C178.356 21.608 178.1 22.112 177.956 22.656C177.812 23.184 177.74 23.88 177.74 24.744V27.432H184.844V23.28C184.844 22.624 184.748 22.16 184.556 21.888C184.364 21.616 183.988 21.408 183.428 21.264L182.972 21.144L183.236 20.4H187.964L188.3 20.736L187.964 21.144C187.612 21.624 187.356 22.136 187.196 22.68C187.052 23.208 186.98 23.896 186.98 24.744V33.264C186.98 33.888 187.068 34.328 187.244 34.584C187.436 34.824 187.796 35.024 188.324 35.184L188.78 35.304L188.54 36H183.236L182.972 35.256L183.428 35.136C184.004 34.96 184.38 34.752 184.556 34.512C184.748 34.256 184.844 33.792 184.844 33.12V28.728H177.74V33.264C177.74 33.888 177.828 34.328 178.004 34.584C178.18 34.824 178.532 35.024 179.06 35.184L179.492 35.304L179.3 36H173.948L173.684 35.256Z" fill="#1B1B1B"/>
<path d="M197.014 36.312C195.622 36.312 194.478 35.92 193.582 35.136C192.686 34.352 192.038 33.344 191.638 32.112C191.238 30.88 191.038 29.568 191.038 28.176C191.038 26.672 191.302 25.312 191.83 24.096C192.358 22.864 193.11 21.888 194.086 21.168C195.078 20.448 196.23 20.088 197.542 20.088C198.806 20.088 199.886 20.424 200.782 21.096C201.678 21.768 202.35 22.68 202.798 23.832C203.262 24.984 203.494 26.28 203.494 27.72C203.494 29.304 203.238 30.752 202.726 32.064C202.214 33.36 201.47 34.392 200.494 35.16C199.518 35.928 198.358 36.312 197.014 36.312ZM197.254 35.064C198.518 35.064 199.486 34.424 200.158 33.144C200.846 31.848 201.19 30.208 201.19 28.224C201.19 26.224 200.846 24.576 200.158 23.28C199.486 21.968 198.518 21.312 197.254 21.312C195.974 21.312 194.998 21.968 194.326 23.28C193.654 24.576 193.318 26.224 193.318 28.224C193.318 30.224 193.654 31.864 194.326 33.144C194.998 34.424 195.974 35.064 197.254 35.064Z" fill="#1B1B1B"/>
<path d="M213.655 36.312C212.263 36.312 211.119 35.92 210.223 35.136C209.327 34.352 208.679 33.344 208.279 32.112C207.879 30.88 207.679 29.568 207.679 28.176C207.679 26.672 207.943 25.312 208.471 24.096C208.999 22.864 209.751 21.888 210.727 21.168C211.719 20.448 212.871 20.088 214.183 20.088C215.447 20.088 216.527 20.424 217.423 21.096C218.319 21.768 218.991 22.68 219.439 23.832C219.903 24.984 220.135 26.28 220.135 27.72C220.135 29.304 219.879 30.752 219.367 32.064C218.855 33.36 218.111 34.392 217.135 35.16C216.159 35.928 214.999 36.312 213.655 36.312ZM213.895 35.064C215.159 35.064 216.127 34.424 216.799 33.144C217.487 31.848 217.831 30.208 217.831 28.224C217.831 26.224 217.487 24.576 216.799 23.28C216.127 21.968 215.159 21.312 213.895 21.312C212.615 21.312 211.639 21.968 210.967 23.28C210.295 24.576 209.959 26.224 209.959 28.224C209.959 30.224 210.295 31.864 210.967 33.144C211.639 34.424 212.615 35.064 213.895 35.064Z" fill="#1B1B1B"/>
<path d="M152.505 16.221C151.768 16.221 151.105 16.119 150.516 15.915C149.938 15.6997 149.485 15.405 149.156 15.031C148.839 14.6457 148.68 14.215 148.68 13.739C148.68 13.2177 148.844 12.787 149.173 12.447C149.513 12.107 149.938 11.937 150.448 11.937C150.55 11.937 150.629 11.954 150.686 11.988C150.743 12.022 150.771 12.0617 150.771 12.107C150.771 12.141 150.72 12.2317 150.618 12.379C150.527 12.5263 150.448 12.6907 150.38 12.872C150.312 13.0533 150.278 13.2687 150.278 13.518C150.278 14.062 150.482 14.504 150.89 14.844C151.298 15.184 151.836 15.354 152.505 15.354C153.094 15.354 153.57 15.201 153.933 14.895C154.296 14.5777 154.477 14.147 154.477 13.603C154.477 13.161 154.364 12.787 154.137 12.481C153.91 12.175 153.627 11.9257 153.287 11.733C152.958 11.529 152.511 11.3023 151.944 11.053C151.298 10.7697 150.771 10.5033 150.363 10.254C149.966 10.0047 149.626 9.676 149.343 9.268C149.071 8.86 148.935 8.34433 148.935 7.721C148.935 7.19966 149.06 6.71233 149.309 6.259C149.57 5.79433 149.955 5.426 150.465 5.154C150.975 4.87066 151.593 4.729 152.318 4.729C152.975 4.729 153.565 4.82533 154.086 5.018C154.607 5.21066 155.015 5.477 155.31 5.817C155.605 6.157 155.752 6.548 155.752 6.99C155.752 7.51133 155.593 7.942 155.276 8.282C154.97 8.61066 154.579 8.775 154.103 8.775C153.899 8.775 153.797 8.71266 153.797 8.588C153.797 8.56533 153.837 8.486 153.916 8.35C154.007 8.20266 154.086 8.03833 154.154 7.857C154.222 7.66433 154.256 7.44333 154.256 7.194C154.256 6.72933 154.075 6.344 153.712 6.038C153.349 5.732 152.885 5.579 152.318 5.579C151.706 5.579 151.236 5.75466 150.907 6.106C150.578 6.446 150.414 6.86533 150.414 7.364C150.414 7.74933 150.522 8.078 150.737 8.35C150.952 8.622 151.219 8.85433 151.536 9.047C151.853 9.22833 152.295 9.44366 152.862 9.693C153.542 9.999 154.092 10.2823 154.511 10.543C154.942 10.8037 155.304 11.155 155.599 11.597C155.894 12.0277 156.041 12.566 156.041 13.212C156.041 14.13 155.729 14.861 155.106 15.405C154.494 15.949 153.627 16.221 152.505 16.221Z" fill="#1B1B1B"/>
<path d="M160.211 3.301L162.608 0.869995C163.038 1.08533 163.254 1.41966 163.254 1.873C163.254 2.33766 162.97 2.70033 162.404 2.961L160.67 3.811L160.211 3.301ZM156.046 15.473L156.403 15.388C156.822 15.2633 157.122 15.116 157.304 14.946C157.485 14.7647 157.655 14.436 157.814 13.96L160.228 6.99C160.341 6.62733 160.398 6.378 160.398 6.242C160.398 6.04933 160.341 5.902 160.228 5.8C160.126 5.68666 159.956 5.60733 159.718 5.562L159.361 5.477L159.548 4.95H162.506L165.617 13.858C165.787 14.3453 165.962 14.708 166.144 14.946C166.336 15.184 166.625 15.4503 167.011 15.745L166.807 16H163.322L163.152 15.473L163.526 15.388C163.764 15.3313 163.934 15.252 164.036 15.15C164.149 15.0367 164.206 14.8837 164.206 14.691C164.206 14.5777 164.177 14.4473 164.121 14.3C164.075 14.1413 164.041 14.028 164.019 13.96L163.288 11.801H159.735L159.361 12.923C159.134 13.6257 159.021 14.164 159.021 14.538C159.021 14.912 159.094 15.2237 159.242 15.473L159.361 15.745L159.072 16H156.25L156.046 15.473ZM160.075 10.832H162.982L161.503 6.514L160.075 10.832Z" fill="#1B1B1B"/>
<path d="M167.838 15.473L168.212 15.388C168.597 15.2633 168.852 15.1103 168.977 14.929C169.113 14.7477 169.181 14.4247 169.181 13.96V6.344C169.181 6.208 169.153 6.11733 169.096 6.07199C169.051 6.01533 168.971 5.98699 168.858 5.98699H167.957L167.77 5.409C168.212 5.239 168.796 5.086 169.521 4.95C170.246 4.80266 170.938 4.729 171.595 4.729C173.012 4.729 174.06 5.01233 174.74 5.579C175.42 6.13433 175.76 6.85966 175.76 7.755C175.76 8.333 175.624 8.86 175.352 9.336C175.091 9.80066 174.689 10.1577 174.145 10.407C174.825 10.6337 175.358 10.9793 175.743 11.444C176.128 11.8973 176.321 12.4017 176.321 12.957C176.321 13.8977 176.004 14.64 175.369 15.184C174.746 15.728 173.737 16 172.343 16H168.042L167.838 15.473ZM172.428 15.201C173.142 15.201 173.703 14.9913 174.111 14.572C174.519 14.1413 174.723 13.5803 174.723 12.889C174.723 12.2883 174.502 11.784 174.06 11.376C173.629 10.9567 173.046 10.747 172.309 10.747C171.912 10.747 171.567 10.6847 171.272 10.56C171.125 10.4807 171.051 10.3617 171.051 10.203C171.051 10.033 171.119 9.948 171.255 9.948C171.312 9.948 171.408 9.95933 171.544 9.982C171.68 10.0047 171.844 10.016 172.037 10.016C172.728 10.016 173.267 9.81766 173.652 9.421C174.049 9.013 174.247 8.469 174.247 7.789C174.247 7.13166 174.026 6.599 173.584 6.191C173.153 5.783 172.547 5.579 171.765 5.579C171.074 5.579 170.728 5.82266 170.728 6.30999V13.178C170.728 14.028 170.892 14.5777 171.221 14.827C171.561 15.0763 171.963 15.201 172.428 15.201Z" fill="#1B1B1B"/>
<path d="M176.914 15.473L177.271 15.388C177.69 15.2633 177.991 15.116 178.172 14.946C178.353 14.7647 178.523 14.436 178.682 13.96L181.096 6.99C181.209 6.62733 181.266 6.378 181.266 6.242C181.266 6.04933 181.209 5.902 181.096 5.8C180.994 5.68666 180.824 5.60733 180.586 5.562L180.229 5.477L180.416 4.95H183.374L186.485 13.858C186.655 14.3453 186.831 14.708 187.012 14.946C187.205 15.184 187.494 15.4503 187.879 15.745L187.675 16H184.19L184.02 15.473L184.394 15.388C184.632 15.3313 184.802 15.252 184.904 15.15C185.017 15.0367 185.074 14.8837 185.074 14.691C185.074 14.5777 185.046 14.4473 184.989 14.3C184.944 14.1413 184.91 14.028 184.887 13.96L184.156 11.801H180.603L180.229 12.923C180.002 13.6257 179.889 14.164 179.889 14.538C179.889 14.912 179.963 15.2237 180.11 15.473L180.229 15.745L179.94 16H177.118L176.914 15.473ZM180.943 10.832H183.85L182.371 6.514L180.943 10.832Z" fill="#1B1B1B"/>
<path d="M188.638 15.473L189.012 15.388C189.33 15.286 189.568 15.15 189.726 14.98C189.896 14.7987 189.981 14.5153 189.981 14.13V6.344C189.981 6.208 189.953 6.11733 189.896 6.07199C189.84 6.01533 189.755 5.98699 189.641 5.98699H188.757L188.57 5.409C189.058 5.239 189.692 5.086 190.474 4.95C191.256 4.80266 192.01 4.729 192.735 4.729C194.877 4.729 196.419 5.26166 197.359 6.327C198.3 7.39233 198.77 8.78066 198.77 10.492C198.77 11.5347 198.578 12.4753 198.192 13.314C197.807 14.1413 197.229 14.7987 196.458 15.286C195.699 15.762 194.764 16 193.653 16H188.825L188.638 15.473ZM193.177 15.218C195.795 15.218 197.104 13.6313 197.104 10.458C197.104 9.58533 196.951 8.78066 196.645 8.044C196.351 7.30733 195.897 6.71233 195.285 6.259C194.673 5.80566 193.92 5.579 193.024 5.579C192.016 5.579 191.511 5.82266 191.511 6.30999V13.297C191.511 14.0337 191.664 14.538 191.97 14.81C192.276 15.082 192.679 15.218 193.177 15.218Z" fill="#1B1B1B"/>
<path d="M204.926 16.221C203.815 16.221 202.88 15.9717 202.121 15.473C201.361 14.963 200.789 14.2773 200.404 13.416C200.03 12.5547 199.843 11.58 199.843 10.492C199.843 9.404 200.03 8.42366 200.404 7.551C200.789 6.67833 201.361 5.99266 202.121 5.494C202.88 4.984 203.815 4.729 204.926 4.729C206.036 4.729 206.971 4.984 207.731 5.494C208.501 5.99266 209.079 6.67833 209.465 7.551C209.85 8.42366 210.043 9.404 210.043 10.492C210.043 11.58 209.85 12.5547 209.465 13.416C209.079 14.2773 208.501 14.963 207.731 15.473C206.971 15.9717 206.036 16.221 204.926 16.221ZM204.858 15.32C205.583 15.32 206.206 15.1103 206.728 14.691C207.26 14.2603 207.668 13.6823 207.952 12.957C208.235 12.2317 208.377 11.427 208.377 10.543C208.377 9.795 208.269 9.047 208.054 8.299C207.838 7.53966 207.481 6.89933 206.983 6.378C206.484 5.85666 205.832 5.59599 205.028 5.59599C204.302 5.59599 203.673 5.82266 203.141 6.276C202.608 6.71799 202.2 7.32433 201.917 8.095C201.645 8.85433 201.509 9.69866 201.509 10.628C201.509 11.988 201.798 13.11 202.376 13.994C202.965 14.878 203.792 15.32 204.858 15.32Z" fill="#1B1B1B"/>
<path d="M139 1H140V41H139V1Z" fill="#947100"/>
<path d="M69.8159 34.896C72.1359 32.992 73.8959 31.408 75.0959 30.144C76.2959 28.88 77.1119 27.8 77.5439 26.904C77.9759 26.008 78.1919 25.088 78.1919 24.144C78.1919 23.248 77.9119 22.552 77.3519 22.056C76.7919 21.544 76.1279 21.288 75.3599 21.288C74.5759 21.288 73.8959 21.536 73.3199 22.032C72.7439 22.512 72.4559 23.192 72.4559 24.072C72.4559 24.424 72.5039 24.72 72.5999 24.96C72.6959 25.184 72.8079 25.392 72.9359 25.584C73.0639 25.776 73.1279 25.896 73.1279 25.944C73.1279 26.072 73.0879 26.152 73.0079 26.184C72.9439 26.2 72.8159 26.208 72.6239 26.208C71.9679 26.208 71.4159 25.992 70.9679 25.56C70.5359 25.128 70.3199 24.576 70.3199 23.904C70.3199 23.088 70.5519 22.392 71.0159 21.816C71.4959 21.24 72.1199 20.808 72.8879 20.52C73.6559 20.232 74.4799 20.088 75.3599 20.088C76.9919 20.088 78.2799 20.44 79.2239 21.144C80.1839 21.848 80.6639 22.856 80.6639 24.168C80.6639 25.576 79.9839 27.064 78.6239 28.632C77.2799 30.184 75.3599 31.984 72.8639 34.032H81.0719C81.0719 34.416 81.0159 34.792 80.9039 35.16C80.7919 35.512 80.6079 35.792 80.3519 36H70.3919L69.8159 34.896Z" fill="#1B1B1B"/>
<path d="M90.5688 36.312C89.1768 36.312 88.0328 35.92 87.1368 35.136C86.2408 34.352 85.5928 33.344 85.1928 32.112C84.7928 30.88 84.5928 29.568 84.5928 28.176C84.5928 26.672 84.8568 25.312 85.3848 24.096C85.9128 22.864 86.6648 21.888 87.6408 21.168C88.6328 20.448 89.7848 20.088 91.0968 20.088C92.3608 20.088 93.4408 20.424 94.3368 21.096C95.2328 21.768 95.9048 22.68 96.3528 23.832C96.8168 24.984 97.0488 26.28 97.0488 27.72C97.0488 29.304 96.7928 30.752 96.2808 32.064C95.7688 33.36 95.0248 34.392 94.0488 35.16C93.0728 35.928 91.9128 36.312 90.5688 36.312ZM90.8088 35.064C92.0728 35.064 93.0408 34.424 93.7128 33.144C94.4008 31.848 94.7448 30.208 94.7448 28.224C94.7448 26.224 94.4008 24.576 93.7128 23.28C93.0408 21.968 92.0728 21.312 90.8088 21.312C89.5288 21.312 88.5528 21.968 87.8808 23.28C87.2088 24.576 86.8728 26.224 86.8728 28.224C86.8728 30.224 87.2088 31.864 87.8808 33.144C88.5528 34.424 89.5288 35.064 90.8088 35.064Z" fill="#1B1B1B"/>
<path d="M100.753 34.896C103.073 32.992 104.833 31.408 106.033 30.144C107.233 28.88 108.049 27.8 108.481 26.904C108.913 26.008 109.129 25.088 109.129 24.144C109.129 23.248 108.849 22.552 108.289 22.056C107.729 21.544 107.065 21.288 106.297 21.288C105.513 21.288 104.833 21.536 104.257 22.032C103.681 22.512 103.393 23.192 103.393 24.072C103.393 24.424 103.441 24.72 103.537 24.96C103.633 25.184 103.745 25.392 103.873 25.584C104.001 25.776 104.065 25.896 104.065 25.944C104.065 26.072 104.025 26.152 103.945 26.184C103.881 26.2 103.753 26.208 103.561 26.208C102.905 26.208 102.353 25.992 101.905 25.56C101.473 25.128 101.257 24.576 101.257 23.904C101.257 23.088 101.489 22.392 101.953 21.816C102.433 21.24 103.057 20.808 103.825 20.52C104.593 20.232 105.417 20.088 106.297 20.088C107.929 20.088 109.217 20.44 110.161 21.144C111.121 21.848 111.601 22.856 111.601 24.168C111.601 25.576 110.921 27.064 109.561 28.632C108.217 30.184 106.297 31.984 103.801 34.032H112.009C112.009 34.416 111.953 34.792 111.841 35.16C111.729 35.512 111.545 35.792 111.289 36H101.329L100.753 34.896Z" fill="#1B1B1B"/>
<path d="M121.506 36.312C120.114 36.312 118.97 35.92 118.074 35.136C117.178 34.352 116.53 33.344 116.13 32.112C115.73 30.88 115.53 29.568 115.53 28.176C115.53 26.672 115.794 25.312 116.322 24.096C116.85 22.864 117.602 21.888 118.578 21.168C119.57 20.448 120.722 20.088 122.034 20.088C123.298 20.088 124.378 20.424 125.274 21.096C126.17 21.768 126.842 22.68 127.29 23.832C127.754 24.984 127.986 26.28 127.986 27.72C127.986 29.304 127.73 30.752 127.218 32.064C126.706 33.36 125.962 34.392 124.986 35.16C124.01 35.928 122.85 36.312 121.506 36.312ZM121.746 35.064C123.01 35.064 123.978 34.424 124.65 33.144C125.338 31.848 125.682 30.208 125.682 28.224C125.682 26.224 125.338 24.576 124.65 23.28C123.978 21.968 123.01 21.312 121.746 21.312C120.466 21.312 119.49 21.968 118.818 23.28C118.146 24.576 117.81 26.224 117.81 28.224C117.81 30.224 118.146 31.864 118.818 33.144C119.49 34.424 120.466 35.064 121.746 35.064Z" fill="#1B1B1B"/>
<path d="M71.482 16.221C70.8813 16.221 70.3713 16.119 69.952 15.915C69.5326 15.6997 69.2153 15.422 69 15.082C68.796 14.742 68.694 14.385 68.694 14.011C68.694 13.501 68.864 13.0647 69.204 12.702C69.5553 12.328 70.037 12.141 70.649 12.141C70.7396 12.141 70.8076 12.158 70.853 12.192C70.9096 12.226 70.938 12.2657 70.938 12.311C70.938 12.3563 70.8643 12.4583 70.717 12.617C70.5696 12.7757 70.445 12.9627 70.343 13.178C70.241 13.382 70.19 13.6483 70.19 13.977C70.19 14.3963 70.3146 14.742 70.564 15.014C70.8133 15.286 71.1533 15.422 71.584 15.422C72.6606 15.422 73.199 14.7137 73.199 13.297V6.99C73.199 6.52534 73.131 6.19667 72.995 6.004C72.859 5.81134 72.5926 5.664 72.196 5.562L71.856 5.477L72.043 4.95H75.392L75.613 5.188L75.392 5.477C75.1426 5.80567 74.967 6.16267 74.865 6.548C74.7743 6.922 74.729 7.415 74.729 8.027V12.362C74.729 13.6993 74.44 14.6797 73.862 15.303C73.2953 15.915 72.502 16.221 71.482 16.221Z" fill="#1B1B1B"/>
<path d="M81.9846 16.221C80.7833 16.221 79.8086 15.9263 79.0606 15.337C78.3126 14.7363 77.9386 13.8353 77.9386 12.634V6.99C77.9386 6.514 77.8706 6.18534 77.7346 6.004C77.61 5.81134 77.3493 5.664 76.9526 5.562L76.5786 5.477L76.7826 4.95H80.1316L80.3356 5.188L80.1316 5.477C79.8823 5.817 79.7066 6.174 79.6046 6.548C79.5026 6.922 79.4516 7.415 79.4516 8.027V12.634C79.4516 13.4387 79.7123 14.0733 80.2336 14.538C80.755 15.0027 81.4066 15.235 82.1886 15.235C82.9593 15.235 83.5996 15.0027 84.1096 14.538C84.6196 14.0733 84.8746 13.4387 84.8746 12.634V6.99C84.8746 6.514 84.8066 6.18534 84.6706 6.004C84.546 5.81134 84.2853 5.664 83.8886 5.562L83.5316 5.477L83.7186 4.95H86.6427L86.8466 5.188L86.6427 5.477C86.382 5.80567 86.2007 6.16267 86.0986 6.548C85.9966 6.922 85.9457 7.415 85.9457 8.027V12.634C85.9457 13.8353 85.5773 14.7363 84.8407 15.337C84.1153 15.9263 83.1633 16.221 81.9846 16.221Z" fill="#1B1B1B"/>
<path d="M88.1207 15.473L88.4777 15.388C88.8744 15.2633 89.1351 15.116 89.2597 14.946C89.3844 14.7647 89.4467 14.436 89.4467 13.96V6.99C89.4467 6.514 89.3787 6.18534 89.2427 6.004C89.1181 5.81134 88.8631 5.664 88.4777 5.562L88.1207 5.477L88.3077 4.95H90.7897L96.6717 13.671V6.99C96.6717 6.52534 96.6037 6.19667 96.4677 6.004C96.3317 5.81134 96.0711 5.664 95.6857 5.562L95.3117 5.477L95.5327 4.95H98.4227L98.6437 5.188L98.4227 5.477C98.1734 5.80567 97.9977 6.16267 97.8957 6.548C97.7937 6.922 97.7427 7.415 97.7427 8.027V14.64C97.7427 14.9573 97.8164 15.235 97.9637 15.473L98.1507 15.745L97.9637 16H96.4167L90.5517 7.279V12.906C90.5517 13.5407 90.5971 14.045 90.6877 14.419C90.7897 14.793 90.9711 15.1443 91.2317 15.473L91.4357 15.745L91.2317 16H88.3077L88.1207 15.473Z" fill="#1B1B1B"/>
<path d="M100.192 15.473L100.566 15.388C100.963 15.2633 101.223 15.116 101.348 14.946C101.473 14.7647 101.535 14.436 101.535 13.96V6.99C101.535 6.514 101.467 6.18534 101.331 6.004C101.206 5.81134 100.951 5.664 100.566 5.562L100.192 5.477L100.379 4.95H103.762L103.966 5.188L103.762 5.477C103.501 5.80567 103.32 6.16267 103.218 6.548C103.116 6.922 103.065 7.415 103.065 8.027V9.931H108.097V6.99C108.097 6.52534 108.029 6.19667 107.893 6.004C107.757 5.81134 107.491 5.664 107.094 5.562L106.771 5.477L106.958 4.95H110.307L110.545 5.188L110.307 5.477C110.058 5.817 109.876 6.17967 109.763 6.565C109.661 6.939 109.61 7.42634 109.61 8.027V14.062C109.61 14.504 109.672 14.8157 109.797 14.997C109.933 15.167 110.188 15.3087 110.562 15.422L110.885 15.507L110.715 16H106.958L106.771 15.473L107.094 15.388C107.502 15.2633 107.768 15.116 107.893 14.946C108.029 14.7647 108.097 14.436 108.097 13.96V10.849H103.065V14.062C103.065 14.504 103.127 14.8157 103.252 14.997C103.377 15.167 103.626 15.3087 104 15.422L104.306 15.507L104.17 16H100.379L100.192 15.473Z" fill="#1B1B1B"/>
<path d="M117.193 16.221C116.083 16.221 115.148 15.9717 114.388 15.473C113.629 14.963 113.057 14.2773 112.671 13.416C112.297 12.5547 112.11 11.58 112.11 10.492C112.11 9.404 112.297 8.42367 112.671 7.551C113.057 6.67834 113.629 5.99267 114.388 5.494C115.148 4.984 116.083 4.729 117.193 4.729C118.304 4.729 119.239 4.984 119.998 5.494C120.769 5.99267 121.347 6.67834 121.732 7.551C122.118 8.42367 122.31 9.404 122.31 10.492C122.31 11.58 122.118 12.5547 121.732 13.416C121.347 14.2773 120.769 14.963 119.998 15.473C119.239 15.9717 118.304 16.221 117.193 16.221ZM117.125 15.32C117.851 15.32 118.474 15.1103 118.995 14.691C119.528 14.2603 119.936 13.6823 120.219 12.957C120.503 12.2317 120.644 11.427 120.644 10.543C120.644 9.795 120.537 9.047 120.321 8.299C120.106 7.53967 119.749 6.89934 119.25 6.378C118.752 5.85667 118.1 5.596 117.295 5.596C116.57 5.596 115.941 5.82267 115.408 6.276C114.876 6.718 114.468 7.32434 114.184 8.095C113.912 8.85434 113.776 9.69867 113.776 10.628C113.776 11.988 114.065 13.11 114.643 13.994C115.233 14.878 116.06 15.32 117.125 15.32Z" fill="#1B1B1B"/>
<path d="M0.756958 33.792C5.39696 29.984 8.91696 26.816 11.317 24.288C13.717 21.76 15.349 19.6 16.213 17.808C17.077 16.016 17.509 14.176 17.509 12.288C17.509 10.496 16.949 9.104 15.829 8.112C14.709 7.088 13.381 6.576 11.845 6.576C10.277 6.576 8.91696 7.072 7.76496 8.064C6.61296 9.024 6.03696 10.384 6.03696 12.144C6.03696 12.848 6.13296 13.44 6.32496 13.92C6.51696 14.368 6.74096 14.784 6.99696 15.168C7.25296 15.552 7.38096 15.792 7.38096 15.888C7.38096 16.144 7.30096 16.304 7.14096 16.368C7.01296 16.4 6.75696 16.416 6.37296 16.416C5.06096 16.416 3.95696 15.984 3.06096 15.12C2.19696 14.256 1.76496 13.152 1.76496 11.808C1.76496 10.176 2.22896 8.784 3.15696 7.632C4.11696 6.48 5.36496 5.616 6.90096 5.04C8.43696 4.46399 10.085 4.17599 11.845 4.17599C15.109 4.17599 17.685 4.88 19.573 6.288C21.493 7.696 22.453 9.712 22.453 12.336C22.453 15.152 21.093 18.128 18.373 21.264C15.685 24.368 11.845 27.968 6.85296 32.064H23.269C23.269 32.832 23.157 33.584 22.933 34.32C22.709 35.024 22.341 35.584 21.829 36H1.90896L0.756958 33.792Z" fill="#1B1B1B"/>
<path d="M42.2627 36.624C39.4787 36.624 37.1907 35.84 35.3987 34.272C33.6067 32.704 32.3107 30.688 31.5107 28.224C30.7107 25.76 30.3107 23.136 30.3107 20.352C30.3107 17.344 30.8387 14.624 31.8947 12.192C32.9507 9.728 34.4547 7.776 36.4067 6.336C38.3907 4.896 40.6947 4.17599 43.3187 4.17599C45.8467 4.17599 48.0067 4.84799 49.7987 6.19199C51.5907 7.53599 52.9347 9.35999 53.8307 11.664C54.7587 13.968 55.2227 16.56 55.2227 19.44C55.2227 22.608 54.7107 25.504 53.6867 28.128C52.6627 30.72 51.1747 32.784 49.2227 34.32C47.2707 35.856 44.9507 36.624 42.2627 36.624ZM42.7427 34.128C45.2707 34.128 47.2067 32.848 48.5507 30.288C49.9267 27.696 50.6147 24.416 50.6147 20.448C50.6147 16.448 49.9267 13.152 48.5507 10.56C47.2067 7.936 45.2707 6.62399 42.7427 6.62399C40.1827 6.62399 38.2307 7.936 36.8867 10.56C35.5427 13.152 34.8707 16.448 34.8707 20.448C34.8707 24.448 35.5427 27.728 36.8867 30.288C38.2307 32.848 40.1827 34.128 42.7427 34.128Z" fill="#1B1B1B"/>
</svg>
