<svg width="194" height="56" viewBox="0 0 194 56" fill="none" xmlns="http://www.w3.org/2000/svg">
<g clip-path="url(#clip0)">
<path d="M105.48 54.7672C108.653 54.321 112.429 51.2584 114.895 46.2018C115.868 44.1222 116.569 41.9926 117.108 38.9144C119.622 37.972 122.121 36.9141 124.316 35.3691L123.983 34.886C121.924 36.353 119.566 37.3617 117.191 38.255C118.292 30.8002 117.119 23.0764 117.315 18.1919C122.296 15.9607 123.358 12.8383 123.11 11.0775C123.046 10.6157 122.878 10.2567 122.697 10.0172C122.27 9.48853 121.632 9.3428 120.997 9.43205C120.449 9.50913 119.868 9.76752 119.385 10.1003C118.77 10.54 117.82 11.5272 117.415 12.2024C116.568 13.499 115.848 15.0721 115.449 18.3072C114.299 18.7045 113.132 18.9862 111.95 19.1526C110.248 19.3919 108.485 19.4044 106.772 19.1449L106.68 19.7466C108.389 19.9772 110.185 19.9895 112.002 19.7339C113.127 19.5757 114.265 19.298 115.39 18.9337C114.758 24.9096 115.553 32.4512 114.479 39.2547C110.501 40.6679 104.906 42.7204 101.996 47.3391C100.987 48.9528 100.695 50.4361 100.862 51.6196C101.016 52.7165 101.578 53.5794 102.302 54.1251C103.211 54.7332 104.298 54.9335 105.48 54.7672ZM117.341 17.5406C117.67 12.3431 119.755 10.2248 121.169 10.0261C121.63 9.96115 122.001 10.0857 122.247 10.3748C122.358 10.5358 122.481 10.7834 122.53 11.1298C122.732 12.5731 121.923 15.3951 117.341 17.5406ZM104.81 54.1844C104.031 54.294 103.274 54.1356 102.649 53.6642C102.024 53.1929 101.568 52.4622 101.434 51.5096C101.284 50.4416 101.572 49.1355 102.481 47.6535C105.152 43.4218 110.165 41.4215 114.362 39.8893C114.02 41.8507 113.526 43.5686 113.082 44.8084C111.188 49.9612 107.666 53.7828 104.81 54.1844Z" fill="#1B1B1B"/>
<path d="M126.812 47.9108C127.505 47.8134 128.333 47.4319 129.213 46.5723C132.449 43.4385 133.709 38.375 134.946 34.1978L134.394 34.0399C133.178 38.1553 131.935 43.1281 128.802 46.1592C128.001 46.9488 127.308 47.2523 126.76 47.3294C126.356 47.3862 126.023 47.3154 125.743 47.2075C124.887 46.7686 124.486 45.7949 124.348 44.8134L124.308 44.3187C123.946 40.4841 124.895 34.2574 125.604 30.5077C129.575 28.6245 133.062 25.8086 135.718 22.3148C137.78 19.6111 138.473 17.2176 138.234 15.5146C138.076 14.3888 137.518 13.5548 136.641 13.1777C136.045 12.9084 135.295 12.8078 134.401 12.9335C132.497 13.2013 130.01 14.5519 127.663 17.7372C127.122 18.4904 127.019 18.5932 126.353 19.7171C123.14 25.3203 121.848 35.3923 122.756 41.8582C123.178 44.8602 124.079 47.0883 125.495 47.7429C125.873 47.9251 126.293 47.9838 126.812 47.9108ZM125.737 29.7824C126.512 25.8762 127.431 22.3619 129.346 18.8252C130.334 17.0672 132.09 14.7009 133.913 13.8558C134.247 13.7205 134.61 13.5812 134.984 13.5285C135.475 13.4595 135.953 13.51 136.393 13.713C137.084 14.0279 137.56 14.6968 137.694 15.6494C137.905 17.1504 137.245 19.3626 135.258 21.9675C132.721 25.2678 129.453 27.9647 125.737 29.7824Z" fill="#1B1B1B"/>
<path d="M150.996 43.9794C151.833 43.8618 152.975 43.2007 154.128 41.7729C156.499 38.7607 158.113 33.7063 158.877 30.979L158.325 30.8211C157.557 33.5195 155.96 38.4833 153.663 41.3967C152.585 42.7257 151.521 43.3169 150.887 43.4062C150.742 43.4265 150.627 43.4427 150.532 43.3971C150.343 43.306 150.265 43.1698 150.245 43.0255C150.229 42.91 150.237 42.7616 150.308 42.634C150.664 41.8186 151.717 40.3163 151.833 40.094C154.136 36.385 154.668 34.3085 154.482 32.9807C154.319 31.8261 153.592 31.2514 153.066 30.6484C152.359 29.8058 151.388 29.177 150.702 28.6849C151.241 27.0784 151.397 25.4669 151.214 24.168C150.992 22.5804 150.216 21.4532 149.017 21.5041L148.782 21.5077C147.571 21.6781 146.57 23.1433 146.806 24.8175C146.846 25.1062 146.944 25.3867 147.042 25.6673C147.595 27.0907 148.788 28.0416 149.997 28.9018C148.601 34.2494 147.846 36.6221 146.227 38.2921L146.095 38.399C145.757 38.7115 145.419 38.818 145.217 38.8464L145.011 38.8459C144.64 38.7214 144.452 38.218 144.366 37.818L144.195 37.0178C143.83 34.4199 144.743 31.4952 145.448 29.3944L145.461 29.2749C145.396 28.813 144.309 28.4065 143.675 28.4958C143.444 28.5282 143.279 28.6103 143.213 28.7668C142.877 29.7266 142.345 31.803 142.332 33.8064C141.325 36.4795 139.814 38.2817 138.613 39.157L138.559 39.194C138.53 39.1981 138.53 39.1981 138.535 39.2269C138.32 39.3748 138.097 39.465 137.904 39.5511L137.508 39.6657C136.902 39.7509 136.273 39.4568 135.986 38.879C135.797 38.5817 135.682 38.1857 135.581 37.6702L135.568 37.5836C135.155 34.6393 136.278 31.5378 137.339 28.8277L137.368 28.6175C137.295 28.0979 136.32 27.6464 135.657 27.7397C135.426 27.7721 135.236 27.8871 135.145 28.0765C134.188 30.6838 133.465 33.4936 133.85 36.2358L134.053 37.2669C134.356 38.3723 134.777 39.4905 135.798 40.0534C135.896 40.1278 136.02 40.1693 136.176 40.2357C136.674 40.4305 137.197 40.3864 137.37 40.362L137.486 40.3458C138.862 40.0934 141 38.1442 142.428 35.1176L142.457 35.3196C142.635 36.5897 143.215 38.6274 144.268 39.2152C144.495 39.36 144.709 39.4182 144.89 39.4516L144.948 39.4435L145.071 39.485L145.364 39.4733C145.854 39.4043 146.279 39.0796 146.638 38.7053C148.331 36.9366 149.111 34.5309 150.515 29.241C151.268 29.7827 152.053 30.3493 152.649 31.0308C152.895 31.3199 153.055 31.6212 153.096 31.9099C153.286 33.2666 151.507 34.8414 150.199 37.8807C149.665 39.1038 149.08 41.0111 149.274 42.3967C149.376 43.1183 149.691 43.692 150.342 43.9244C150.527 43.9866 150.737 44.0159 150.996 43.9794ZM150.208 28.3128C149.065 27.5022 148.07 26.7002 147.599 25.4418C147.505 25.1901 147.444 24.9633 147.411 24.7323C147.217 23.3468 148.027 22.2026 148.921 22.0769L149.036 22.0606C149.856 22.0337 150.451 22.9213 150.642 24.278C150.796 25.3749 150.673 26.805 150.208 28.3128Z" fill="#1B1B1B"/>
<path d="M160.76 36.2187C161.221 36.1537 161.659 35.9156 162.055 35.595C163.735 34.1519 164.588 32.0597 165.519 30.1037L164.984 29.8551C164.028 31.844 163.274 33.8046 161.669 35.1489L161.293 35.4078C161.075 35.5268 160.848 35.5881 160.675 35.6125C160.502 35.6368 160.354 35.6282 160.354 35.6282C159.864 35.4911 159.634 34.9052 159.553 34.3279L159.517 33.862C159.436 31.6069 159.976 29.382 160.953 27.3313C160.978 27.2984 160.97 27.2407 160.966 27.2118C160.905 26.7788 159.761 26.1744 159.156 26.2596C159.011 26.2798 158.9 26.3249 158.83 26.4526C157.865 28.5899 157.633 30.9185 157.893 32.7659C158.124 34.4112 158.739 35.6493 159.558 36.0345L159.562 36.0634L159.591 36.0593C160.125 36.3079 160.558 36.247 160.558 36.247L160.76 36.2187ZM161.629 23.7629C160.879 23.8684 160.192 23.3763 160.086 22.6258C159.981 21.8753 160.502 21.1839 161.252 21.0784C162.001 20.973 162.663 21.498 162.769 22.2485C162.874 22.999 162.378 23.6575 161.629 23.7629Z" fill="#1B1B1B"/>
<path d="M167.724 37.0054C168.185 36.9404 168.63 36.7601 169.039 36.526C171.542 35.0848 173.264 31.4281 174.584 28.6815L174.049 28.4329C172.733 31.2084 171.074 34.6797 168.731 36.01C168.516 36.158 168.1 36.3343 167.639 36.3992C167.321 36.4438 166.967 36.4348 166.65 36.2733C166.296 36.0581 166.132 35.7279 166.076 35.3238C165.821 33.0931 167.569 28.9912 168.582 27.2003C169.076 27.3663 169.55 27.388 169.982 27.3271C171.453 27.1202 172.548 25.9066 172.402 24.8675C172.264 23.886 171.198 23.4178 170.189 23.5598C168.948 23.7342 167.566 24.7823 166.905 25.5228C164.89 27.7195 164.014 30.9041 164.362 33.3865C164.67 35.5803 166.022 37.2447 167.724 37.0054ZM169.901 26.7498C169.584 26.7944 169.259 26.7813 168.892 26.6857C169.388 25.8211 170.405 24.4713 171.155 24.3658C171.53 24.3131 171.698 24.466 171.85 24.9157C171.951 25.6373 171.084 26.5835 169.901 26.7498Z" fill="#1B1B1B"/>
<path d="M177.807 40.7384C178.499 40.641 179.328 40.2595 180.207 39.3999C183.444 36.2661 184.704 31.2026 185.941 27.0254L185.389 26.8675C184.173 30.9829 182.93 35.9557 179.796 38.9868C178.996 39.7764 178.303 40.0799 177.755 40.157C177.351 40.2138 177.018 40.143 176.738 40.0351C175.882 39.5962 175.48 38.6224 175.343 37.641L175.303 37.1462C174.941 33.3117 175.89 27.085 176.598 23.3352C180.569 21.4521 184.057 18.6362 186.713 15.1424C188.775 12.4387 189.468 10.0452 189.229 8.34216C189.071 7.2164 188.512 6.38242 187.636 6.0053C187.039 5.73599 186.29 5.63535 185.396 5.76111C183.492 6.02886 181.005 7.37946 178.658 10.5648C178.117 11.318 178.014 11.4208 177.348 12.5447C174.135 18.1479 172.843 28.2199 173.751 34.6858C174.173 37.6878 175.074 39.9159 176.489 40.5705C176.868 40.7527 177.288 40.8114 177.807 40.7384ZM176.732 22.61C177.507 18.7038 178.425 15.1895 180.34 11.6528C181.329 9.89482 183.085 7.52847 184.907 6.68341C185.241 6.54813 185.604 6.40879 185.979 6.35605C186.469 6.28709 186.947 6.33764 187.387 6.54064C188.079 6.85551 188.555 7.52441 188.689 8.47697C188.9 9.97798 188.24 12.1902 186.252 14.7951C183.716 18.0954 180.447 20.7923 176.732 22.61Z" fill="#1B1B1B"/>
<path d="M90.2893 42.1749C91.1615 42.0522 91.9352 41.2281 92.5089 40.3367C93.2932 40.7192 94.1732 41.1041 95.16 41.458L95.2629 41.1733C94.3073 40.815 93.4451 40.4435 92.6785 40.0744C93.297 39.0496 93.6774 38.0265 93.7132 37.942L93.411 37.8256C93.4154 37.8567 93.0237 38.9132 92.4052 39.938C91.7543 39.6004 91.1678 39.2696 90.6614 38.9435L90.8108 38.7635L91.8834 37.5794C92.6238 36.7441 93.4289 35.8043 94.1452 34.7976C94.5044 34.302 94.8593 33.7752 95.1653 33.2394C95.4712 32.7036 95.7416 32.141 95.9631 31.5695C96.0057 31.4204 96.0841 31.1868 96.1671 30.8732C96.2368 30.5772 96.2976 30.219 96.3096 29.8517C96.3347 29.578 96.3108 29.2952 96.2736 29.0302L96.2452 28.8276C96.1858 28.518 96.0907 28.293 96.0264 28.1749C95.9269 27.9186 95.7873 27.7157 95.6342 27.5306C95.479 27.3299 95.3147 27.1782 95.1392 27.0598C94.9971 26.9526 94.8594 26.8766 94.7083 26.8184C94.555 26.7446 94.406 26.702 94.2571 26.6593C93.9592 26.5741 93.6368 26.5399 93.3343 26.5348C93.1274 26.5321 92.9072 26.5472 92.6891 26.5779C90.2282 26.924 87.1843 29.339 86.6192 32.3273C86.5269 32.8013 86.4967 33.3778 86.5843 34.0013C86.7747 35.3574 87.5451 36.9975 89.6634 38.6229C89.5986 38.7274 89.5495 38.8296 89.4825 38.9185L89.1922 39.4521C88.9687 39.8968 88.7898 40.3194 88.7199 40.7266C88.6973 40.9046 88.6902 41.0805 88.7143 41.2519C88.7274 41.3454 88.7562 41.4368 88.7849 41.5281C88.8291 41.6173 88.8712 41.6908 88.9445 41.76C89.0754 41.9005 89.2309 41.9899 89.382 42.0481C89.4509 42.0861 89.5331 42.1064 89.6154 42.1266C89.6821 42.149 89.7643 42.1692 89.8444 42.1739C89.9911 42.2009 90.1491 42.1946 90.2893 42.1749ZM90.2455 41.8631C90.1365 41.8785 90.0097 41.8804 89.8963 41.8646C89.6361 41.8217 89.3494 41.703 89.2297 41.5291L89.1611 41.3798C89.1545 41.3331 89.148 41.2863 89.1548 41.2218C89.155 41.1105 89.1865 40.9948 89.249 40.8747C89.3654 40.5722 89.6041 40.2366 89.874 39.8967C89.941 39.8078 90.0614 39.6478 90.2398 39.4478L90.4562 39.179C90.9804 39.5185 91.569 39.8649 92.2356 40.2003C91.6843 41.0249 90.9931 41.758 90.2455 41.8631ZM89.833 38.3606C87.8035 36.8022 87.0775 35.2512 86.8958 33.9574C86.8126 33.3651 86.8494 32.8354 86.9305 32.3948C87.2029 30.9418 88.0869 29.5459 89.4552 28.4315C90.4981 27.6013 91.6738 27.0386 92.7173 26.8918C92.9354 26.8611 93.14 26.8482 93.3313 26.8531C93.6182 26.8605 93.894 26.9012 94.1473 27.0086C94.4006 27.116 94.6116 27.2612 94.7824 27.4597C94.8956 27.5868 94.9954 27.7317 95.0662 27.8966C95.1525 28.0593 95.2122 28.2576 95.2696 28.4403L95.3418 28.9546C95.3413 29.1772 95.334 29.4644 95.2777 29.7425C95.2215 30.0207 95.1341 30.3032 95.0401 30.5389L94.8009 31.0971C94.5662 31.5752 94.2983 32.042 93.9857 32.5311C93.6888 33.0179 93.3585 33.4935 92.9971 33.9735C92.3054 34.9292 91.5825 35.8892 90.8998 36.7959C90.7258 37.027 90.342 37.5737 89.9915 38.1317L89.833 38.3606Z" fill="#947100"/>
<path d="M41.7867 50.9687C43.8801 50.5862 45.0085 48.7792 46.0212 47.1946L45.5399 46.909C44.9116 47.8804 44.2172 49.0082 43.2311 49.7355C42.7484 50.0682 42.1918 50.2936 41.7015 50.3625C41.1246 50.4436 40.6388 50.3353 40.6388 50.3353C38.5638 49.8027 37.5799 45.7318 37.2265 43.4266C36.6342 39.2123 37.0289 31.9746 37.4042 27.9481C38.6648 27.9181 39.9461 27.8264 41.1863 27.6521C43.2054 27.3683 45.1631 26.8577 47.0763 26.0295L46.855 25.5014C44.9995 26.3214 43.0666 26.7991 41.0764 27.0788C39.8938 27.245 38.6702 27.3287 37.4714 27.3794C38.0616 21.115 39.0242 16.0346 40.4496 10.2711C40.5744 9.69424 40.6249 9.21619 40.5721 8.84094C40.4666 8.09045 40.0349 7.73903 39.5157 7.812C39.2561 7.84848 38.9551 8.00853 38.6454 8.31697C34.8607 11.7335 30.2995 21.7644 27.9525 27.0394C25.4359 26.9221 21.9102 26.7406 18.3047 27.2473C13.5167 27.9202 8.57366 29.7923 5.63441 34.6207C4.12558 37.0698 3.68351 39.5751 3.99182 41.7688C4.59222 46.0409 8.03324 49.1778 12.3309 48.5738C13.3116 48.436 14.3504 48.0839 15.3897 47.5258C21.815 44.0619 25.9538 33.119 28.3342 27.6627C30.7066 27.8003 33.079 27.9378 35.4392 27.9888C35.2257 31.4922 35.0897 37.2217 35.7509 41.9267C36.0349 43.9473 36.4636 45.7415 37.099 47.1239C37.6976 48.4527 38.4196 49.823 39.485 50.4974C40.1967 50.9567 40.8925 51.0944 41.6713 50.9849L41.7867 50.9687ZM12.2169 47.9717C8.3807 48.5108 5.14475 45.7866 4.56058 41.63C3.80197 36.2323 8.25367 29.1897 18.3489 27.7709C21.3198 27.3534 24.4791 27.4392 27.7123 27.6324C25.4437 32.8375 21.3174 43.6609 15.1107 47.0057C14.1828 47.5188 13.1976 47.8339 12.2169 47.9717ZM35.4735 27.3953C33.175 27.3651 30.8314 27.2235 28.5785 27.0986C30.3627 23.0507 32.4898 18.5131 35.818 12.8941C36.5291 11.6757 37.2732 10.482 38.2268 9.52378C36.8469 15.1927 35.8668 20.7759 35.4735 27.3953Z" fill="#1B1B1B"/>
<path d="M45.6156 46.1919C46.3078 46.0946 47.1366 45.7132 48.0159 44.8538C51.2522 41.7203 52.5113 36.6571 53.7478 32.4801L53.1962 32.3222C51.9803 36.4374 50.7379 41.41 47.6048 44.4406C46.804 45.2301 46.1113 45.5335 45.5633 45.6106C45.1595 45.6673 44.826 45.5964 44.5461 45.4886C43.6902 45.0496 43.2886 44.0758 43.1507 43.0944L43.1106 42.5996C42.7482 38.7651 43.6967 32.5387 44.4051 28.7892C48.376 26.9065 51.8629 24.0911 54.5192 20.5976C56.5805 17.8942 57.2736 15.5009 57.0343 13.7978C56.8761 12.6721 56.3177 11.8381 55.4411 11.4609C54.8444 11.1915 54.0949 11.0908 53.2007 11.2165C51.2971 11.484 48.8102 12.8343 46.4636 16.0193C45.9223 16.7724 45.8191 16.8752 45.1535 17.999C41.9407 23.6017 40.6501 33.6733 41.5589 40.1391C41.9808 43.1411 42.8822 45.3692 44.2978 46.0239C44.6763 46.2062 45.0964 46.2649 45.6156 46.1919ZM44.5385 28.064C45.3132 24.158 46.2311 20.6439 48.146 17.1075C49.1343 15.3496 50.8901 12.9835 52.7127 12.1387C53.0466 12.0035 53.4094 11.8642 53.7844 11.8115C54.2747 11.7425 54.7524 11.7931 55.1928 11.9962C55.8841 12.3111 56.3605 12.98 56.4944 13.9326C56.7053 15.4336 56.0456 17.6456 54.0586 20.2503C51.5222 23.5503 48.2539 26.2467 44.5385 28.064Z" fill="#1B1B1B"/>
<path d="M55.5074 37.8844C55.9689 37.8196 56.4061 37.5815 56.8022 37.2609C58.4819 35.818 59.335 33.726 60.266 31.7701L59.7311 31.5215C58.7752 33.5103 58.0213 35.4707 56.416 36.8148L56.0406 37.0736C55.822 37.1926 55.5953 37.2539 55.4222 37.2783C55.2492 37.3026 55.1009 37.294 55.1009 37.294C54.611 37.1568 54.3816 36.5709 54.3004 35.9936L54.2644 35.5277C54.1828 33.2726 54.7231 31.0479 55.6997 28.9974C55.7245 28.9645 55.7163 28.9067 55.7123 28.8779C55.6514 28.4449 54.5076 27.8403 53.9019 27.9255C53.7577 27.9457 53.6463 27.9908 53.576 28.1184C52.6116 30.2556 52.38 32.5841 52.6397 34.4314C52.8709 36.0768 53.4861 37.3149 54.305 37.7002L54.309 37.7291L54.3379 37.725C54.8729 37.9736 55.3055 37.9128 55.3055 37.9128L55.5074 37.8844ZM56.3747 25.4292C55.6248 25.5346 54.9379 25.0424 54.8325 24.2919C54.727 23.5414 55.2475 22.8501 55.9974 22.7447C56.7474 22.6393 57.4094 23.1644 57.5149 23.9149C57.6204 24.6654 57.1247 25.3238 56.3747 25.4292Z" fill="#1B1B1B"/>
<path d="M67.7371 36.1657C69.3235 35.9427 71.7111 32.8402 72.6616 29.5571L72.1099 29.3991C71.1262 32.8636 68.7561 35.4632 67.6889 35.6132C67.5735 35.6294 67.4829 35.6127 67.4212 35.5919C67.3553 35.5423 67.2895 35.4927 67.2733 35.3772C67.2368 35.1174 67.4482 34.5285 67.9498 33.0745C68.6541 31.18 68.8141 29.5974 68.6396 28.3562C68.4003 26.6532 67.484 25.5751 66.4673 25.247C66.2492 25.1599 66.0144 25.1635 65.7836 25.1959C65.524 25.2324 65.2685 25.2978 64.9963 25.4538C63.3508 26.3031 62.1273 28.2707 61.2823 30.4204C61.6356 28.9579 62.0462 27.6934 62.1124 27.5369L62.1291 27.4462C62.0763 27.071 60.8703 26.6518 60.2357 26.7409C60.0627 26.7653 59.9225 26.8144 59.8811 26.938C59.4376 28.1777 58.9586 30.6293 59.3156 33.1694C59.4332 34.0065 59.6374 34.8314 59.957 35.6401L60.6614 35.6295C60.6379 33.1602 62.4793 27.4264 65.2464 25.9779C65.465 25.8588 65.6628 25.8016 65.8359 25.7773C66.009 25.753 66.1572 25.7616 66.2807 25.8031C66.4989 25.8902 66.6097 26.0512 66.6503 26.3398C66.8288 27.6099 65.4543 30.8055 65.8397 33.5477C65.9451 34.2982 66.1908 34.9995 66.6343 35.6436C66.778 35.8295 66.9506 36.0113 67.1688 36.0984C67.3581 36.1895 67.5352 36.194 67.7371 36.1657Z" fill="#1B1B1B"/>
<path d="M74.8741 36.9287C75.3356 36.8639 75.7809 36.6835 76.1892 36.4496C78.6927 35.0086 80.4142 31.3522 81.7342 28.6058L81.1993 28.3572C79.8833 31.1324 78.224 34.6035 75.8814 35.9335C75.6668 36.0814 75.2504 36.2577 74.7889 36.3226C74.4716 36.3672 74.1174 36.3581 73.8006 36.1965C73.4468 35.9814 73.2827 35.6512 73.2259 35.2471C72.9712 33.0164 74.7185 28.9148 75.7316 27.124C76.2255 27.2901 76.6992 27.3118 77.1318 27.251C78.6029 27.0443 79.6971 25.8308 79.551 24.7917C79.4131 23.8103 78.3472 23.3419 77.3377 23.4838C76.0974 23.6581 74.7152 24.706 74.0545 25.4464C72.0396 27.6429 71.1635 30.8273 71.5124 33.3097C71.8207 35.5034 73.1723 37.1679 74.8741 36.9287ZM77.0507 26.6737C76.7334 26.7183 76.408 26.7052 76.0416 26.6095C76.5378 25.745 77.5541 24.3953 78.304 24.2899C78.679 24.2372 78.8475 24.3902 78.999 24.8398C79.1004 25.5615 78.2333 26.5075 77.0507 26.6737Z" fill="#1B1B1B"/>
</g>
<defs>
<clipPath id="clip0">
<path d="M0 0H194V56H0V0Z" fill="white"/>
</clipPath>
</defs>
</svg>
