<svg width="226" height="144" viewBox="0 0 226 144" fill="none" xmlns="http://www.w3.org/2000/svg">
<path d="M77.0433 142.877C82.3621 142.129 88.6922 136.999 92.827 128.529C94.4577 125.045 95.6328 121.478 96.5353 116.322C100.751 114.743 104.94 112.971 108.619 110.383L108.062 109.574C104.61 112.031 100.657 113.721 96.6759 115.217C98.5204 102.729 96.5541 89.7912 96.8834 81.6091C105.234 77.8715 107.013 72.6413 106.599 69.6918C106.49 68.9181 106.208 68.3167 105.905 67.9155C105.189 67.03 104.119 66.7859 103.056 66.9354C102.137 67.0645 101.162 67.4973 100.353 68.0548C99.3225 68.7914 97.7305 70.445 97.0512 71.576C95.6307 73.7479 94.4232 76.383 93.7549 81.8022C91.8267 82.4677 89.8715 82.9397 87.889 83.2183C85.0362 83.6193 82.0806 83.6402 79.209 83.2055L79.0548 84.2133C81.9196 84.5996 84.9303 84.6203 87.9765 84.1922C89.8623 83.9271 91.7692 83.4619 93.6558 82.8516C92.5973 92.862 93.9289 105.495 92.1284 116.892C85.4593 119.259 76.081 122.697 71.202 130.434C69.511 133.137 69.022 135.622 69.3006 137.604C69.5588 139.442 70.5016 140.887 71.7148 141.801C73.2386 142.82 75.0608 143.155 77.0433 142.877ZM96.9273 80.5181C97.4788 71.8117 100.974 68.2634 103.343 67.9304C104.117 67.8217 104.738 68.0303 105.151 68.5146C105.337 68.7843 105.543 69.1991 105.625 69.7793C105.965 72.197 104.607 76.9241 96.9273 80.5181ZM75.92 141.9C74.6144 142.084 73.3444 141.819 72.2966 141.029C71.2488 140.24 70.4851 139.016 70.2608 137.42C70.0094 135.631 70.4908 133.443 72.0157 130.96C76.4926 123.872 84.8971 120.521 91.9326 117.955C91.3589 121.24 90.5306 124.118 89.7871 126.195C86.6117 134.826 80.7069 141.228 75.92 141.9Z" fill="#1B1B1B"/>
<path d="M112.805 131.391C113.965 131.228 115.355 130.589 116.829 129.149C122.254 123.9 124.366 115.418 126.44 108.421L125.515 108.156C123.476 115.05 121.392 123.38 116.14 128.457C114.797 129.78 113.636 130.288 112.717 130.418C112.04 130.513 111.481 130.394 111.012 130.213C109.577 129.478 108.904 127.847 108.673 126.203L108.606 125.374C107.999 118.951 109.59 108.52 110.778 102.239C117.436 99.0849 123.281 94.368 127.735 88.5154C131.191 83.9865 132.353 79.9771 131.952 77.1243C131.687 75.2385 130.751 73.8415 129.282 73.2098C128.281 72.7587 127.025 72.5901 125.526 72.8007C122.335 73.2492 118.166 75.5116 114.231 80.8475C113.324 82.1091 113.151 82.2813 112.035 84.1639C106.648 93.5499 104.483 110.422 106.005 121.253C106.712 126.281 108.223 130.014 110.596 131.11C111.23 131.415 111.934 131.514 112.805 131.391ZM111.002 101.024C112.301 94.4811 113.841 88.5944 117.052 82.67C118.709 79.7251 121.652 75.7612 124.708 74.3457C125.268 74.1191 125.876 73.8857 126.504 73.7973C127.326 73.6818 128.127 73.7665 128.865 74.1065C130.024 74.634 130.823 75.7544 131.047 77.3501C131.4 79.8644 130.294 83.5701 126.963 87.9336C122.71 93.4621 117.231 97.9795 111.002 101.024Z" fill="#1B1B1B"/>
<path d="M153.347 124.806C154.749 124.609 156.665 123.502 158.597 121.11C162.572 116.064 165.277 107.597 166.558 103.029L165.633 102.764C164.346 107.284 161.668 115.599 157.818 120.48C156.01 122.706 154.227 123.696 153.163 123.846C152.921 123.88 152.728 123.907 152.569 123.831C152.252 123.678 152.121 123.45 152.087 123.208C152.06 123.015 152.074 122.766 152.192 122.552C152.789 121.186 154.556 118.67 154.75 118.297C158.61 112.084 159.502 108.606 159.189 106.382C158.918 104.448 157.698 103.485 156.816 102.475C155.631 101.064 154.004 100.01 152.853 99.186C153.757 96.495 154.018 93.7956 153.712 91.6197C153.339 88.9603 152.038 87.0722 150.028 87.1574L149.635 87.1634C147.604 87.4488 145.927 89.9033 146.321 92.7078C146.389 93.1913 146.554 93.6612 146.719 94.1312C147.645 96.5156 149.644 98.1084 151.671 99.5493C149.331 108.507 148.065 112.482 145.352 115.279L145.13 115.458C144.563 115.982 143.996 116.16 143.658 116.208L143.312 116.207C142.691 115.998 142.376 115.155 142.232 114.485L141.945 113.145C141.334 108.793 142.864 103.893 144.046 100.374L144.067 100.174C143.958 99.4006 142.137 98.7197 141.073 98.8692C140.686 98.9236 140.41 99.0611 140.299 99.3232C139.736 100.931 138.844 104.409 138.822 107.765C137.134 112.243 134.6 115.262 132.587 116.728L132.497 116.79C132.449 116.797 132.449 116.797 132.456 116.845C132.096 117.093 131.723 117.244 131.398 117.388L130.735 117.58C129.719 117.723 128.664 117.23 128.183 116.262C127.866 115.764 127.674 115.101 127.504 114.237L127.483 114.092C126.79 109.16 128.673 103.965 130.451 99.4252L130.5 99.0731C130.378 98.2028 128.743 97.4464 127.631 97.6027C127.244 97.657 126.926 97.8496 126.774 98.1669C125.169 102.534 123.956 107.241 124.602 111.835L124.943 113.562C125.45 115.414 126.157 117.286 127.867 118.229C128.033 118.354 128.24 118.424 128.502 118.535C129.337 118.861 130.214 118.787 130.504 118.746L130.698 118.719C133.005 118.296 136.589 115.031 138.983 109.961L139.031 110.3C139.33 112.427 140.303 115.841 142.068 116.825C142.447 117.068 142.806 117.165 143.11 117.221L143.207 117.208L143.414 117.277L143.904 117.258C144.726 117.142 145.438 116.598 146.041 115.971C148.879 113.008 150.186 108.979 152.54 100.118C153.802 101.025 155.118 101.974 156.117 103.116C156.53 103.6 156.798 104.105 156.866 104.588C157.186 106.861 154.204 109.499 152.01 114.59C151.115 116.639 150.134 119.834 150.46 122.155C150.63 123.364 151.159 124.325 152.249 124.714C152.56 124.818 152.912 124.867 153.347 124.806ZM152.026 98.5626C150.109 97.2048 148.441 95.8614 147.652 93.7535C147.494 93.3319 147.391 92.9519 147.337 92.5651C147.011 90.2441 148.368 88.3275 149.867 88.1168L150.061 88.0897C151.435 88.0444 152.433 89.5314 152.752 91.804C153.01 93.6414 152.805 96.0371 152.026 98.5626Z" fill="#1B1B1B"/>
<path d="M169.715 111.806C170.488 111.697 171.221 111.298 171.885 110.761C174.701 108.344 176.132 104.839 177.693 101.563L176.796 101.146C175.193 104.478 173.929 107.762 171.238 110.014L170.609 110.448C170.242 110.647 169.862 110.75 169.572 110.79C169.282 110.831 169.033 110.817 169.033 110.817C168.212 110.587 167.828 109.606 167.692 108.639L167.631 107.858C167.495 104.081 168.401 100.354 170.039 96.9186C170.08 96.8635 170.067 96.7668 170.06 96.7184C169.958 95.9931 168.04 94.9806 167.025 95.1233C166.783 95.1573 166.597 95.2328 166.479 95.4466C164.862 99.0268 164.473 102.927 164.908 106.022C165.295 108.778 166.326 110.852 167.699 111.497L167.706 111.546L167.754 111.539C168.651 111.955 169.376 111.853 169.376 111.853L169.715 111.806ZM171.171 90.9412C169.914 91.1179 168.762 90.2935 168.586 89.0363C168.409 87.7792 169.282 86.621 170.539 86.4444C171.796 86.2677 172.906 87.1472 173.082 88.4043C173.259 89.6615 172.428 90.7645 171.171 90.9412Z" fill="#1B1B1B"/>
<path d="M181.389 113.124C182.162 113.015 182.909 112.713 183.593 112.321C187.79 109.906 190.677 103.781 192.89 99.1802L191.993 98.7639C189.787 103.413 187.005 109.228 183.077 111.456C182.718 111.704 182.02 112 181.246 112.108C180.714 112.183 180.12 112.168 179.589 111.897C178.996 111.537 178.721 110.984 178.626 110.307C178.199 106.57 181.129 99.6991 182.828 96.6991C183.656 96.9772 184.45 97.0135 185.175 96.9116C187.641 96.565 189.476 94.5321 189.231 92.7914C189 91.1474 187.213 90.363 185.521 90.6009C183.442 90.8931 181.124 92.6487 180.017 93.8891C176.639 97.5689 175.169 102.903 175.754 107.062C176.27 110.737 178.536 113.525 181.389 113.124ZM185.039 95.9445C184.507 96.0193 183.962 95.9973 183.348 95.8371C184.18 94.3889 185.883 92.1278 187.141 91.9511C187.769 91.8628 188.052 92.1189 188.305 92.8722C188.475 94.081 187.022 95.6659 185.039 95.9445Z" fill="#1B1B1B"/>
<path d="M198.293 119.377C199.453 119.214 200.843 118.575 202.317 117.135C207.742 111.885 209.854 103.403 211.928 96.4061L211.003 96.1416C208.964 103.035 206.88 111.365 201.628 116.443C200.285 117.766 199.124 118.274 198.205 118.403C197.528 118.498 196.969 118.379 196.5 118.199C195.065 117.464 194.392 115.832 194.161 114.188L194.094 113.36C193.487 106.936 195.078 96.5059 196.266 90.2248C202.923 87.0703 208.769 82.3534 213.223 76.5009C216.679 71.9719 217.841 67.9625 217.44 65.1097C217.175 63.224 216.239 61.8269 214.77 61.1952C213.769 60.7441 212.513 60.5755 211.014 60.7862C207.823 61.2347 203.654 63.4971 199.719 68.8329C198.812 70.0945 198.639 70.2668 197.523 72.1494C192.136 81.5353 189.971 98.4071 191.493 109.238C192.2 114.267 193.711 117.999 196.084 119.096C196.718 119.401 197.422 119.499 198.293 119.377ZM196.49 89.0099C197.789 82.4666 199.329 76.5798 202.54 70.6554C204.197 67.7106 207.14 63.7467 210.196 62.3311C210.756 62.1045 211.364 61.8711 211.992 61.7828C212.814 61.6673 213.615 61.7519 214.353 62.092C215.512 62.6194 216.311 63.7399 216.535 65.3355C216.888 67.8499 215.782 71.5556 212.451 75.9191C208.198 81.4475 202.719 85.965 196.49 89.0099Z" fill="#1B1B1B"/>
<path d="M150.362 70.6475C151.824 70.442 153.121 69.0615 154.083 67.5684C155.398 68.209 156.873 68.8537 158.527 69.4467L158.7 68.9698C157.098 68.3695 155.652 67.7472 154.367 67.129C155.404 65.4124 156.042 63.6985 156.102 63.557L155.595 63.3619C155.603 63.4141 154.946 65.1839 153.909 66.9005C152.818 66.335 151.835 65.7809 150.986 65.2345L151.236 64.9331L153.034 62.9496C154.276 61.5504 155.625 59.9761 156.826 58.2897C157.428 57.4595 158.023 56.5771 158.536 55.6796C159.049 54.7821 159.502 53.8397 159.874 52.8823C159.945 52.6326 160.076 52.2413 160.216 51.7159C160.332 51.2202 160.434 50.6201 160.454 50.0049C160.497 49.5463 160.457 49.0726 160.394 48.6288L160.346 48.2893C160.247 47.7708 160.087 47.3938 159.98 47.1959C159.813 46.7667 159.579 46.4269 159.322 46.1168C159.062 45.7806 158.787 45.5264 158.492 45.3281C158.254 45.1486 158.023 45.0213 157.77 44.9237C157.513 44.8001 157.263 44.7287 157.014 44.6573C156.514 44.5144 155.974 44.4573 155.467 44.4487C155.12 44.4442 154.751 44.4694 154.385 44.5208C150.26 45.1006 145.157 49.146 144.209 54.1518C144.055 54.9457 144.004 55.9114 144.151 56.9558C144.47 59.2274 145.762 61.9748 149.313 64.6975C149.204 64.8725 149.122 65.0439 149.01 65.1928L148.523 66.0866C148.148 66.8315 147.848 67.5393 147.731 68.2214C147.693 68.5197 147.681 68.8142 147.722 69.1014C147.744 69.2581 147.792 69.4111 147.84 69.5641C147.914 69.7134 147.985 69.8366 148.108 69.9525C148.327 70.1879 148.588 70.3377 148.841 70.4352C148.956 70.4989 149.094 70.5327 149.232 70.5666C149.344 70.6041 149.482 70.638 149.616 70.6458C149.862 70.6911 150.127 70.6805 150.362 70.6475ZM150.289 70.1253C150.106 70.1509 149.893 70.1542 149.703 70.1277C149.267 70.0558 148.786 69.8571 148.586 69.5658L148.471 69.3157C148.46 69.2374 148.449 69.159 148.46 69.0509C148.461 68.8645 148.513 68.6707 148.618 68.4696C148.813 67.9629 149.213 67.4007 149.666 66.8312C149.778 66.6823 149.98 66.4143 150.279 66.0794L150.642 65.629C151.521 66.1978 152.507 66.778 153.625 67.3399C152.701 68.7212 151.542 69.9491 150.289 70.1253ZM149.597 64.2581C146.195 61.6476 144.978 59.0496 144.673 56.8824C144.534 55.8902 144.595 55.0029 144.731 54.2648C145.188 51.8309 146.67 49.4925 148.964 47.6258C150.712 46.2352 152.683 45.2925 154.432 45.0467C154.798 44.9953 155.141 44.9737 155.462 44.9819C155.943 44.9942 156.405 45.0623 156.83 45.2423C157.254 45.4222 157.608 45.6654 157.894 45.9979C158.084 46.2109 158.251 46.4537 158.37 46.7299C158.515 47.0024 158.615 47.3345 158.711 47.6405L158.832 48.5022C158.831 48.8751 158.819 49.3561 158.725 49.822C158.63 50.2878 158.484 50.7611 158.326 51.156L157.925 52.091C157.532 52.8919 157.083 53.6739 156.559 54.4931C156.061 55.3086 155.507 56.1053 154.901 56.9094C153.742 58.5101 152.53 60.1183 151.385 61.6371C151.094 62.0242 150.45 62.9401 149.863 63.8747L149.597 64.2581Z" fill="#947100"/>
<path d="M70.043 82.3728C73.5524 81.7316 75.4444 78.7045 77.1423 76.0498L76.3354 75.5715C75.2821 77.1988 74.1177 79.0882 72.4646 80.3067C71.6554 80.8642 70.7223 81.2418 69.9003 81.3574C68.9333 81.4933 68.1188 81.3119 68.1188 81.3119C64.6406 80.4201 62.9919 73.6008 62.3999 69.7393C61.4077 62.6798 62.0705 50.5555 62.7004 43.8104C64.8136 43.76 66.9615 43.606 69.0407 43.3138C72.4254 42.8381 75.7074 41.9824 78.9146 40.5948L78.5437 39.7101C75.4332 41.0841 72.1928 41.8846 68.8564 42.3535C66.8739 42.6322 64.8227 42.7725 62.8131 42.8577C63.8037 32.3638 65.4181 23.8532 67.8086 14.198C68.0179 13.2317 68.1026 12.4309 68.0143 11.8023C67.8376 10.5452 67.1139 9.95655 66.2435 10.0789C65.8083 10.14 65.3036 10.4082 64.7846 10.9249C58.4394 16.6489 50.7915 33.4529 46.8561 42.2898C42.6374 42.0938 36.7271 41.7903 30.6829 42.6398C22.6564 43.7678 14.3697 46.9047 9.44164 54.9935C6.91187 59.0965 6.17037 63.2933 6.68683 66.9681C7.69258 74.1243 13.4604 79.3786 20.665 78.366C22.309 78.135 24.0505 77.5451 25.7928 76.6099C36.5645 70.8062 43.5046 52.4745 47.4959 43.3339C51.4729 43.5639 55.4498 43.7939 59.4064 43.8789C59.0478 49.7476 58.8189 59.3456 59.9265 67.2271C60.4022 70.6118 61.1205 73.6172 62.1855 75.933C63.1887 78.1588 64.3988 80.4541 66.1847 81.5837C67.3776 82.3529 68.5441 82.5834 69.8496 82.4L70.043 82.3728ZM20.474 77.3574C14.043 78.2612 8.61886 73.6983 7.6403 66.7355C6.36953 57.6935 13.8334 45.8953 30.7569 43.5169C35.7373 42.817 41.0334 42.9602 46.4533 43.2832C42.6494 52.003 35.7305 70.1345 25.3252 75.7388C23.7695 76.5984 22.118 77.1264 20.474 77.3574ZM59.4639 42.8846C55.6108 42.8345 51.6822 42.5977 47.9055 42.3888C50.8971 35.6077 54.4637 28.0061 60.0439 18.5929C61.2362 16.5516 62.4838 14.5519 64.0825 12.9466C61.7684 22.4431 60.1244 31.7961 59.4639 42.8846Z" fill="#1B1B1B"/>
<path d="M76.4625 74.3702C77.6229 74.2071 79.0124 73.5681 80.4865 72.1282C85.9122 66.8787 88.0238 58.3968 90.0975 51.3995L89.1728 51.135C87.1338 58.0288 85.0502 66.3588 79.7975 71.4361C78.4549 72.7589 77.2936 73.2673 76.3749 73.3964C75.698 73.4915 75.1389 73.3729 74.6698 73.1923C73.2351 72.457 72.5621 70.8258 72.331 69.1818L72.2639 68.353C71.657 61.9297 73.2482 51.4993 74.4363 45.2181C81.0934 42.0637 86.9391 37.3468 91.3925 31.4943C94.8486 26.9653 96.0109 22.9559 95.61 20.1031C95.3449 18.2173 94.409 16.8203 92.9396 16.1886C91.9393 15.7375 90.6829 15.5689 89.184 15.7795C85.9927 16.2281 81.8236 18.4905 77.8893 23.8263C76.9818 25.0879 76.8088 25.2601 75.6927 27.1428C70.306 36.5287 68.1408 53.4005 69.663 64.2315C70.3697 69.2603 71.8804 72.9926 74.2534 74.089C74.888 74.3943 75.5921 74.4926 76.4625 74.3702ZM74.6601 44.0033C75.9593 37.46 77.4988 31.5732 80.7094 25.6488C82.3665 22.704 85.3103 18.7401 88.3656 17.3245C88.9255 17.0979 89.5337 16.8645 90.1623 16.7761C90.9843 16.6606 91.7851 16.7453 92.5232 17.0853C93.6821 17.6128 94.4806 18.7333 94.7048 20.3289C95.0582 22.8433 93.9518 26.5489 90.6205 30.9124C86.368 36.4409 80.8887 40.9584 74.6601 44.0033Z" fill="#1B1B1B"/>
<path d="M93.0462 60.4522C93.8199 60.3434 94.5527 59.9446 95.2169 59.4075C98.0328 56.9901 99.4633 53.4854 101.024 50.2089L100.128 49.7926C98.525 53.1242 97.2608 56.4083 94.5695 58.6602L93.9401 59.0938C93.5737 59.2933 93.1936 59.396 92.9035 59.4368C92.6134 59.4775 92.3648 59.4632 92.3648 59.4632C91.5436 59.2334 91.1591 58.252 91.0232 57.2849L90.9629 56.5045C90.8264 52.7269 91.7326 49.0001 93.37 45.565C93.4116 45.5098 93.398 45.4131 93.3912 45.3647C93.2893 44.6395 91.3719 43.6269 90.3565 43.7696C90.1147 43.8036 89.9281 43.8791 89.8102 44.0929C88.1931 47.6731 87.8045 51.5738 88.2394 54.6684C88.6268 57.4245 89.6579 59.4984 91.0306 60.1438L91.0373 60.1921L91.0857 60.1853C91.9825 60.6017 92.7077 60.4997 92.7077 60.4997L93.0462 60.4522ZM94.5023 39.5875C93.2451 39.7642 92.0938 38.9398 91.9171 37.6826C91.7404 36.4255 92.6131 35.2673 93.8703 35.0907C95.1275 34.914 96.2372 35.7935 96.4139 37.0507C96.5906 38.3078 95.7595 39.4108 94.5023 39.5875Z" fill="#1B1B1B"/>
<path d="M113.548 57.5709C116.207 57.1971 120.21 51.9995 121.804 46.4996L120.879 46.2351C119.23 52.0388 115.256 56.3939 113.467 56.6453C113.274 56.6725 113.122 56.6446 113.018 56.6098C112.908 56.5267 112.798 56.4436 112.771 56.2502C112.709 55.815 113.064 54.8283 113.905 52.3926C115.086 49.2189 115.354 46.5678 115.062 44.4886C114.661 41.6358 113.125 39.83 111.421 39.2806C111.055 39.1348 110.662 39.1408 110.275 39.1952C109.84 39.2563 109.411 39.3658 108.955 39.6272C106.197 41.0504 104.145 44.3465 102.728 47.9478C103.321 45.4978 104.009 43.3794 104.12 43.1172L104.148 42.9654C104.06 42.3368 102.038 41.6348 100.975 41.7843C100.684 41.825 100.449 41.9074 100.38 42.1144C99.6363 44.1912 98.8329 48.2981 99.4309 52.5531C99.628 53.9554 99.9701 55.3372 100.506 56.6919L101.686 56.6738C101.648 52.5374 104.735 42.9322 109.374 40.5051C109.741 40.3057 110.072 40.2098 110.363 40.169C110.653 40.1282 110.901 40.1426 111.108 40.2121C111.474 40.358 111.66 40.6277 111.728 41.1113C112.027 43.2388 109.722 48.5921 110.368 53.1856C110.544 54.4428 110.956 55.6177 111.699 56.6966C111.94 57.0079 112.23 57.3124 112.595 57.4582C112.912 57.6108 113.209 57.6184 113.548 57.5709Z" fill="#1B1B1B"/>
<path d="M125.512 58.8479C126.286 58.7392 127.032 58.437 127.717 58.045C131.914 55.6307 134.8 49.5053 137.013 44.9045L136.117 44.4881C133.91 49.1373 131.128 54.9522 127.201 57.1806C126.841 57.4284 126.143 57.7237 125.369 57.8325C124.837 57.9072 124.244 57.8921 123.712 57.6216C123.119 57.2611 122.844 56.7081 122.749 56.0311C122.323 52.2944 125.252 45.4233 126.951 42.4233C127.779 42.7014 128.573 42.7377 129.298 42.6358C131.764 42.2892 133.599 40.2563 133.354 38.5156C133.123 36.8716 131.337 36.0872 129.644 36.3251C127.565 36.6173 125.248 38.3729 124.14 39.6134C120.762 43.2931 119.293 48.6276 119.877 52.786C120.394 56.4608 122.659 59.2488 125.512 58.8479ZM129.162 41.6687C128.631 41.7435 128.085 41.7215 127.471 41.5613C128.303 40.1131 130.007 37.852 131.264 37.6753C131.892 37.587 132.175 37.8431 132.429 38.5964C132.599 39.8052 131.145 41.3901 129.162 41.6687Z" fill="#1B1B1B"/>
</svg>
